<?xml version="1.0"?>
<svg width="500" height="500" xmlns="http://www.w3.org/2000/svg" xmlns:svg="http://www.w3.org/2000/svg">
 <g>
  <title>Layer 1</title>
  <path id="svg_1" fill-rule="evenodd" fill="#cccccc" d="m131.889008,150.061005l0,63.597l-27.256004,0c-20.078995,0 -36.342995,16.263 -36.342995,36.341995l0,181.710999c0,20.078003 16.264,36.339996 36.342995,36.339996l290.734001,0c20.078003,0 36.345001,-16.261993 36.345001,-36.339996l0,-181.710999c0,-20.078995 -16.266998,-36.341995 -36.345001,-36.341995l-27.253998,0l0,-63.597c0,-65.232002 -52.881989,-118.111004 -118.111984,-118.111004s-118.112015,52.878002 -118.112015,118.111004zm45.427994,63.597l0,-63.597c0,-40.157005 32.525009,-72.684998 72.682999,-72.684998c40.15799,0 72.684998,32.528 72.684998,72.684998l0,63.597l-145.367996,0zm36.341003,99.940994c0,-20.078003 16.263,-36.341003 36.341995,-36.341003s36.341003,16.263 36.341003,36.341003c0,12.812012 -6.634003,24.07901 -16.625,30.528992c0,0 3.549988,21.446014 7.541992,46.699005c0,7.537994 -6.087006,13.625 -13.628998,13.625l-27.257996,0c-7.541,0 -13.626999,-6.087006 -13.626999,-13.625l7.542007,-46.699005c-9.992004,-6.449982 -16.628006,-17.717987 -16.628006,-30.528992z" clip-rule="evenodd"/>
 </g>
</svg>