<?xml version="1.0"?>
<svg width="500" height="500" xmlns="http://www.w3.org/2000/svg" xmlns:svg="http://www.w3.org/2000/svg">
 <g>
  <title>Layer 1</title>
  <path clip-rule="evenodd" d="m68.290001,431.710999c0,20.078003 16.264,36.339996 36.343002,36.339996l290.734001,0c20.078003,0 36.345001,-16.261993 36.345001,-36.339996l0,-181.710999c0,-20.078995 -16.266998,-36.341995 -36.345001,-36.341995l-218.049988,0l0,-63.597c0,-40.157013 32.524979,-72.685013 72.682983,-72.685013c40.15799,0 72.684998,32.528 72.684998,72.685013l0,4.541c0,12.537979 10.175995,22.714996 22.710999,22.714996c12.537018,0 22.71701,-10.177002 22.71701,-22.714996l0,-4.541c0,-65.232002 -52.882019,-118.111004 -118.112,-118.111004c-65.240005,0 -118.110992,52.879002 -118.110992,118.111004l0,63.597l-27.256012,0c-20.079002,0 -36.342995,16.263 -36.342995,36.341995l0,181.710999l-0.000999,0l-0.000008,0zm145.368004,-118.112c0,-20.078003 16.263,-36.341003 36.341995,-36.341003s36.341003,16.263 36.341003,36.341003c0,12.812012 -6.634003,24.07901 -16.625,30.528992c0,0 3.549988,21.446014 7.541992,46.699005c0,7.537994 -6.087006,13.625 -13.628998,13.625l-27.258011,0c-7.541,0 -13.626999,-6.087006 -13.626999,-13.625l7.541992,-46.699005c-9.991989,-6.449982 -16.627991,-17.717987 -16.627991,-30.528992l0.000015,0z" fill="#cccccc" fill-rule="evenodd" id="svg_1"/>
 </g>
</svg>